<mxfile host="app.diagrams.net" modified="2023-10-16T02:28:15.172Z" agent="Mozilla/5.0 (Windows NT 10.0; Win64; x64; rv:109.0) Gecko/20100101 Firefox/118.0" etag="HXCVLXjCFI4Sq_NcU7nD" version="22.0.4" type="github">
  <diagram id="C5RBs43oDa-KdzZeNtuy" name="Page-1">
    <mxGraphModel dx="880" dy="425" grid="1" gridSize="10" guides="1" tooltips="1" connect="1" arrows="1" fold="1" page="1" pageScale="1" pageWidth="827" pageHeight="1169" math="0" shadow="0">
      <root>
        <mxCell id="WIyWlLk6GJQsqaUBKTNV-0" />
        <mxCell id="WIyWlLk6GJQsqaUBKTNV-1" parent="WIyWlLk6GJQsqaUBKTNV-0" />
        <mxCell id="I97YweKrfN2xUERfml46-24" style="edgeStyle=orthogonalEdgeStyle;rounded=0;orthogonalLoop=1;jettySize=auto;html=1;entryX=0.5;entryY=0;entryDx=0;entryDy=0;" edge="1" parent="WIyWlLk6GJQsqaUBKTNV-1" source="I97YweKrfN2xUERfml46-0" target="I97YweKrfN2xUERfml46-1">
          <mxGeometry relative="1" as="geometry" />
        </mxCell>
        <mxCell id="I97YweKrfN2xUERfml46-0" value="start" style="strokeWidth=2;html=1;shape=mxgraph.flowchart.terminator;whiteSpace=wrap;" vertex="1" parent="WIyWlLk6GJQsqaUBKTNV-1">
          <mxGeometry x="340" y="20" width="90" height="50" as="geometry" />
        </mxCell>
        <mxCell id="I97YweKrfN2xUERfml46-1" value="angka1-100" style="shape=parallelogram;html=1;strokeWidth=2;perimeter=parallelogramPerimeter;whiteSpace=wrap;rounded=1;arcSize=12;size=0.23;" vertex="1" parent="WIyWlLk6GJQsqaUBKTNV-1">
          <mxGeometry x="335" y="110" width="100" height="60" as="geometry" />
        </mxCell>
        <mxCell id="I97YweKrfN2xUERfml46-9" style="edgeStyle=orthogonalEdgeStyle;rounded=0;orthogonalLoop=1;jettySize=auto;html=1;" edge="1" parent="WIyWlLk6GJQsqaUBKTNV-1" source="I97YweKrfN2xUERfml46-2">
          <mxGeometry relative="1" as="geometry">
            <mxPoint x="380" y="310" as="targetPoint" />
          </mxGeometry>
        </mxCell>
        <mxCell id="I97YweKrfN2xUERfml46-2" value="tebakan" style="shape=parallelogram;html=1;strokeWidth=2;perimeter=parallelogramPerimeter;whiteSpace=wrap;rounded=1;arcSize=12;size=0.23;" vertex="1" parent="WIyWlLk6GJQsqaUBKTNV-1">
          <mxGeometry x="330" y="210" width="100" height="60" as="geometry" />
        </mxCell>
        <mxCell id="I97YweKrfN2xUERfml46-17" style="edgeStyle=orthogonalEdgeStyle;rounded=0;orthogonalLoop=1;jettySize=auto;html=1;" edge="1" parent="WIyWlLk6GJQsqaUBKTNV-1" source="I97YweKrfN2xUERfml46-3">
          <mxGeometry relative="1" as="geometry">
            <mxPoint x="310" y="690" as="targetPoint" />
          </mxGeometry>
        </mxCell>
        <mxCell id="I97YweKrfN2xUERfml46-20" style="edgeStyle=orthogonalEdgeStyle;rounded=0;orthogonalLoop=1;jettySize=auto;html=1;" edge="1" parent="WIyWlLk6GJQsqaUBKTNV-1" source="I97YweKrfN2xUERfml46-3">
          <mxGeometry relative="1" as="geometry">
            <mxPoint x="630" y="580" as="targetPoint" />
          </mxGeometry>
        </mxCell>
        <mxCell id="I97YweKrfN2xUERfml46-3" value="menebak" style="rounded=1;whiteSpace=wrap;html=1;absoluteArcSize=1;arcSize=14;strokeWidth=2;" vertex="1" parent="WIyWlLk6GJQsqaUBKTNV-1">
          <mxGeometry x="330" y="310" width="100" height="70" as="geometry" />
        </mxCell>
        <mxCell id="I97YweKrfN2xUERfml46-11" style="edgeStyle=orthogonalEdgeStyle;rounded=0;orthogonalLoop=1;jettySize=auto;html=1;" edge="1" parent="WIyWlLk6GJQsqaUBKTNV-1" source="I97YweKrfN2xUERfml46-4" target="I97YweKrfN2xUERfml46-5">
          <mxGeometry relative="1" as="geometry" />
        </mxCell>
        <mxCell id="I97YweKrfN2xUERfml46-12" style="edgeStyle=orthogonalEdgeStyle;rounded=0;orthogonalLoop=1;jettySize=auto;html=1;" edge="1" parent="WIyWlLk6GJQsqaUBKTNV-1" source="I97YweKrfN2xUERfml46-4">
          <mxGeometry relative="1" as="geometry">
            <mxPoint x="380" y="540" as="targetPoint" />
          </mxGeometry>
        </mxCell>
        <mxCell id="I97YweKrfN2xUERfml46-4" value="tebakan angka" style="strokeWidth=2;html=1;shape=mxgraph.flowchart.decision;whiteSpace=wrap;" vertex="1" parent="WIyWlLk6GJQsqaUBKTNV-1">
          <mxGeometry x="322.5" y="420" width="115" height="80" as="geometry" />
        </mxCell>
        <mxCell id="I97YweKrfN2xUERfml46-5" value="menang" style="strokeWidth=2;html=1;shape=mxgraph.flowchart.stored_data;whiteSpace=wrap;" vertex="1" parent="WIyWlLk6GJQsqaUBKTNV-1">
          <mxGeometry x="510" y="430" width="100" height="60" as="geometry" />
        </mxCell>
        <mxCell id="I97YweKrfN2xUERfml46-6" value="angka lebih kecil" style="rounded=1;whiteSpace=wrap;html=1;absoluteArcSize=1;arcSize=14;strokeWidth=2;" vertex="1" parent="WIyWlLk6GJQsqaUBKTNV-1">
          <mxGeometry x="335" y="540" width="100" height="65" as="geometry" />
        </mxCell>
        <mxCell id="I97YweKrfN2xUERfml46-7" value="end" style="strokeWidth=2;html=1;shape=mxgraph.flowchart.terminator;whiteSpace=wrap;" vertex="1" parent="WIyWlLk6GJQsqaUBKTNV-1">
          <mxGeometry x="335" y="650" width="100" height="60" as="geometry" />
        </mxCell>
        <mxCell id="I97YweKrfN2xUERfml46-8" style="edgeStyle=orthogonalEdgeStyle;rounded=0;orthogonalLoop=1;jettySize=auto;html=1;entryX=0.57;entryY=0.017;entryDx=0;entryDy=0;entryPerimeter=0;" edge="1" parent="WIyWlLk6GJQsqaUBKTNV-1" source="I97YweKrfN2xUERfml46-1" target="I97YweKrfN2xUERfml46-2">
          <mxGeometry relative="1" as="geometry" />
        </mxCell>
        <mxCell id="I97YweKrfN2xUERfml46-10" style="edgeStyle=orthogonalEdgeStyle;rounded=0;orthogonalLoop=1;jettySize=auto;html=1;entryX=0.5;entryY=0;entryDx=0;entryDy=0;entryPerimeter=0;" edge="1" parent="WIyWlLk6GJQsqaUBKTNV-1" source="I97YweKrfN2xUERfml46-3" target="I97YweKrfN2xUERfml46-4">
          <mxGeometry relative="1" as="geometry" />
        </mxCell>
        <mxCell id="I97YweKrfN2xUERfml46-14" style="edgeStyle=orthogonalEdgeStyle;rounded=0;orthogonalLoop=1;jettySize=auto;html=1;entryX=0.5;entryY=0;entryDx=0;entryDy=0;entryPerimeter=0;" edge="1" parent="WIyWlLk6GJQsqaUBKTNV-1" source="I97YweKrfN2xUERfml46-6" target="I97YweKrfN2xUERfml46-7">
          <mxGeometry relative="1" as="geometry" />
        </mxCell>
        <mxCell id="I97YweKrfN2xUERfml46-16" style="edgeStyle=orthogonalEdgeStyle;rounded=0;orthogonalLoop=1;jettySize=auto;html=1;entryX=1;entryY=0.5;entryDx=0;entryDy=0;entryPerimeter=0;" edge="1" parent="WIyWlLk6GJQsqaUBKTNV-1" source="I97YweKrfN2xUERfml46-5" target="I97YweKrfN2xUERfml46-7">
          <mxGeometry relative="1" as="geometry">
            <Array as="points">
              <mxPoint x="650" y="460" />
              <mxPoint x="650" y="680" />
            </Array>
          </mxGeometry>
        </mxCell>
        <mxCell id="I97YweKrfN2xUERfml46-22" value="" style="endArrow=classic;html=1;rounded=0;entryX=1;entryY=0.5;entryDx=0;entryDy=0;" edge="1" parent="WIyWlLk6GJQsqaUBKTNV-1" target="I97YweKrfN2xUERfml46-6">
          <mxGeometry width="50" height="50" relative="1" as="geometry">
            <mxPoint x="630" y="570" as="sourcePoint" />
            <mxPoint x="510" y="572" as="targetPoint" />
          </mxGeometry>
        </mxCell>
        <mxCell id="I97YweKrfN2xUERfml46-23" value="" style="endArrow=classic;html=1;rounded=0;" edge="1" parent="WIyWlLk6GJQsqaUBKTNV-1">
          <mxGeometry width="50" height="50" relative="1" as="geometry">
            <mxPoint x="310" y="680" as="sourcePoint" />
            <mxPoint x="330" y="679.5" as="targetPoint" />
          </mxGeometry>
        </mxCell>
      </root>
    </mxGraphModel>
  </diagram>
</mxfile>
